<svg id="NL Logo" data-name="NL Logo" xmlns="http://www.w3.org/2000/svg" viewBox="0 0 1000 1000"><defs><style>.cls-1,.cls-3{fill:#b6ffa1;}.cls-1,.cls-2{opacity:0.5;}.cls-2,.cls-4{fill:#fff;}</style></defs><path class="cls-1" d="M674.3,293.39c-1.23-1.5-2.49-3-3.79-4.4C671.81,290.42,673.08,291.89,674.3,293.39Z"/><path d="M908.06,246.77v750a3.23,3.23,0,0,1-3.22,3.22h-81a404,404,0,0,1-69.49-6,399.89,399.89,0,0,1-165.45-69.74c-4.59-3.31-9.09-6.7-13.54-10.19a403.78,403.78,0,0,1-67.78-67.81q-10.83-13.77-20.49-28.49-10.23-15.63-19-32.26a399.65,399.65,0,0,1-31-77.2h0a621.14,621.14,0,0,1-12.38-123.46V402.2a248.42,248.42,0,0,0-179-238.6V741A105.29,105.29,0,0,0,350.94,846.28H468.05a434.48,434.48,0,0,0,87.78,92.63c4.74,3.73,9.65,7.44,14.58,11a433.32,433.32,0,0,0,90.8,50.12H338.71a247.09,247.09,0,0,1-61.47-7.71,244.3,244.3,0,0,1-31.58-10.44q-2.34-.95-4.68-2l-2.17-1c-1.58-.69-3.16-1.41-4.71-2.13-1.81-.84-3.6-1.72-5.39-2.61-5.29-2.63-10.47-5.47-15.54-8.46-.81-.46-1.61-1-2.41-1.45l-2.25-1.37-2.08-1.33c-3.2-2-6.34-4.13-9.42-6.3-1.41-1-2.8-2-4.17-3a243.72,243.72,0,0,1-28.61-24.57c-1.46-1.45-2.87-2.91-4.28-4.38s-2.8-3-4.17-4.49-2.71-3-4.06-4.59q-6.28-7.29-12-15.09c-1-1.39-2-2.81-3-4.24-.84-1.18-1.68-2.38-2.48-3.6a3.37,3.37,0,0,1-.4-.61c-.4-.57-.78-1.14-1.16-1.73q-6.51-9.81-12-20.25c-1-1.83-1.9-3.67-2.83-5.5s-1.81-3.7-2.69-5.58-1.73-3.75-2.55-5.64-1.64-3.81-2.42-5.73-1.45-3.6-2.13-5.41q-2.8-7.39-5.16-15c-.29-.94-.59-1.89-.86-2.86-.89-3-1.69-5.92-2.44-8.91-.19-.73-.38-1.47-.55-2.21-.34-1.37-.65-2.74-1-4.1L97.6,806a5.4,5.4,0,0,1-.17-.72c-.14-.65-.29-1.3-.42-2a3.43,3.43,0,0,1-.08-.48l-.63-3.16c-.13-.63-.24-1.29-.34-1.92-.17-.86-.32-1.72-.46-2.59a3.35,3.35,0,0,1-.13-.69c-.25-1.35-.46-2.72-.65-4.09,0,0,0,0,0-.08-.09-.68-.19-1.33-.28-2a.5.5,0,0,1,0-.3c-.17-1-.32-2.08-.42-3.14-.28-2-.51-4.06-.72-6.1s-.36-3.79-.5-5.69-.3-4-.4-6c-.09-1-.13-2.06-.17-3.09-.06-1.52-.13-3-.15-4.57-.06-2-.08-4.09-.08-6.15V0h84.23a404,404,0,0,1,69.49,6A399.66,399.66,0,0,1,401.23,68.82q12,8.15,23.42,17.09,14.72,11.6,28.3,24.52a404.58,404.58,0,0,1,39.46,43.29q10.8,13.71,20.38,28.34A399.87,399.87,0,0,1,563,291.67c.06.2.12.39.17.59a329.91,329.91,0,0,1,12.21,90.31V597.8a248.36,248.36,0,0,0,179,238.6V259A105.29,105.29,0,0,0,649.06,153.72H600.33V0h61a246.86,246.86,0,0,1,92.76,18.05l.29.12q2.34.95,4.68,2l2.17,1c1.58.69,3.16,1.41,4.71,2.13,1.81.84,3.6,1.72,5.39,2.61,5.29,2.63,10.47,5.47,15.54,8.46.81.47,1.61,1,2.41,1.46s1.51.9,2.25,1.36l2.08,1.33a3.57,3.57,0,0,1,.51.32c1.28.82,2.57,1.64,3.85,2.5s2.59,1.75,3.86,2.63c.65.45,1.3.91,1.93,1.37a9,9,0,0,1,.78.55c1,.67,1.92,1.37,2.87,2.06.35.26.69.53,1,.78,1.49,1.1,3,2.24,4.42,3.37l0,0c1.41,1.12,2.8,2.22,4.19,3.35.51.42,1,.82,1.52,1.27,1.26,1,2.51,2.06,3.73,3.13,1.47,1.27,2.9,2.53,4.33,3.81q2.4,2.19,4.74,4.41c1.48,1.41,3,2.84,4.38,4.27,2.89,2.89,5.71,5.83,8.45,8.87s5.39,6.1,8,9.26c1.3,1.58,2.57,3.18,3.83,4.8s2.48,3.22,3.71,4.87,2.42,3.3,3.6,5,2.31,3.35,3.45,5a245.4,245.4,0,0,1,15.44,26.64c.92,1.85,1.81,3.7,2.69,5.58s1.73,3.75,2.55,5.64,1.64,3.81,2.42,5.73c1.39,3.39,2.68,6.8,3.92,10.25s2.45,7.13,3.54,10.73c.19.63.4,1.28.58,1.91q.71,2.37,1.37,4.8c1.12,4,2.13,8.11,3,12.23.38,1.67.72,3.35,1.06,5q1.17,5.83,2,11.77c.21,1.41.42,2.82.59,4.25.36,2.55.63,5.12.88,7.69q.28,2.84.51,5.75c0,.1,0,.21,0,.31.08,1.25.17,2.53.23,3.79q.09,1.2.15,2.4l.06,1.44c.06,1.51.13,3,.15,4.54C908,242.67,908.06,244.71,908.06,246.77Z"/><path class="cls-2" d="M674.3,293.39c-1.23-1.5-2.49-3-3.79-4.4C671.81,290.42,673.08,291.89,674.3,293.39Z"/><path class="cls-3" d="M700.83,723.81v1.53H699.3A1.54,1.54,0,0,0,700.83,723.81Z"/><path class="cls-4" d="M674.3,293.39c-1.23-1.5-2.49-3-3.79-4.4C671.81,290.42,673.08,291.89,674.3,293.39Z"/></svg>